<svg width="192" height="192" viewBox="0 0 192 192" fill="none" xmlns="http://www.w3.org/2000/svg">
  <rect width="192" height="192" rx="48" fill="#0A0A0F"/>
  <rect x="24" y="24" width="144" height="144" rx="40" fill="url(#bg)"/>
  <path d="M132.125 118.188V136C132.125 139.797 128.848 142.891 125.035 142.594C107.543 141.229 91.5148 133.23 78.7656 120.484C66.0199 107.734 58.021 91.7064 56.6562 74.2148C56.359 70.4016 59.4532 67.125 63.25 67.125H81.0625C84.3556 67.125 87.1823 69.4691 87.7891 72.7051C88.6286 77.1828 89.9931 81.5478 91.8516 85.6992C93.0543 88.3848 92.4688 91.5414 90.3906 93.6172L82.8594 101.148C89.1432 112.121 98.1283 121.107 109.102 127.391L116.633 119.859C118.709 117.781 121.865 117.196 124.551 118.398C128.702 120.257 133.068 121.621 137.545 122.461C140.781 123.068 143.125 125.894 143.125 129.188V118.188H132.125Z" fill="white"/>
  <defs>
    <linearGradient id="bg" x1="24" y1="24" x2="168" y2="168" gradientUnits="userSpaceOnUse">
      <stop stop-color="#00D4AA"/>
      <stop offset="1" stop-color="#0099FF"/>
    </linearGradient>
  </defs>
</svg>
