<svg width="512" height="512" viewBox="0 0 512 512" fill="none" xmlns="http://www.w3.org/2000/svg">
  <rect width="512" height="512" rx="132" fill="#0A0A0F"/>
  <rect x="64" y="64" width="384" height="384" rx="108" fill="url(#bg)"/>
  <path d="M352.332 314.957V362.5C352.332 372.625 343.594 380.875 333.43 380.082C286.785 376.441 244.043 355.109 210.043 321.109C176.051 287.109 154.719 244.367 151.078 197.723C150.285 187.559 158.535 178.82 168.66 178.82H216.203C224.984 178.82 232.523 185.07 234.141 193.695C236.379 205.637 240.016 217.277 244.969 228.348C248.176 235.512 246.617 243.93 241.074 249.469L220.996 269.547C237.754 298.809 261.457 322.516 290.723 339.277L310.801 319.199C316.34 313.656 324.758 312.098 331.922 315.305C342.992 320.258 354.633 323.895 366.574 326.133C375.199 327.75 381.449 335.289 381.449 344.07V314.957H352.332Z" fill="white"/>
  <defs>
    <linearGradient id="bg" x1="64" y1="64" x2="448" y2="448" gradientUnits="userSpaceOnUse">
      <stop stop-color="#00D4AA"/>
      <stop offset="1" stop-color="#0099FF"/>
    </linearGradient>
  </defs>
</svg>
